<?xml version="1.0" encoding="utf-8"?>
<!-- Generator: Adobe Illustrator 16.0.4, SVG Export Plug-In . SVG Version: 6.00 Build 0)  -->
<!DOCTYPE svg PUBLIC "-//W3C//DTD SVG 1.1//EN" "http://www.w3.org/Graphics/SVG/1.1/DTD/svg11.dtd">
<svg version="1.1" id="Layer_1" xmlns="http://www.w3.org/2000/svg" xmlns:xlink="http://www.w3.org/1999/xlink" x="0px" y="0px"
	 width="31px" height="31px" viewBox="380 290 31 31" enable-background="new 380 290 31 31" xml:space="preserve">
<g>
	<path fill="#547CBE" d="M395.5,320.501c8.283,0,14.999-6.715,14.999-15s-6.716-15.002-14.999-15.002s-14.999,6.717-14.999,15.002
		S387.217,320.501,395.5,320.501"/>
	<path fill="#FFFFFF" d="M391.881,302.962h1.553v-1.508c0-0.666,0.018-1.691,0.498-2.326c0.508-0.672,1.207-1.129,2.407-1.129
		c1.956,0,2.78,0.279,2.78,0.279l-0.389,2.298c0,0-0.646-0.188-1.248-0.188c-0.604,0-1.146,0.217-1.146,0.819v1.752h2.473
		l-0.172,2.244h-2.301v7.794h-2.906v-7.794h-1.552L391.881,302.962L391.881,302.962z"/>
</g>
</svg>
