<?xml version="1.0" encoding="utf-8"?>
<!-- Generator: Adobe Illustrator 16.0.4, SVG Export Plug-In . SVG Version: 6.00 Build 0)  -->
<!DOCTYPE svg PUBLIC "-//W3C//DTD SVG 1.1//EN" "http://www.w3.org/Graphics/SVG/1.1/DTD/svg11.dtd">
<svg version="1.1" id="Layer_1" xmlns="http://www.w3.org/2000/svg" xmlns:xlink="http://www.w3.org/1999/xlink" x="0px" y="0px"
	 width="45px" height="45px" viewBox="-7 -7 45 45" enable-background="new -7 -7 45 45" xml:space="preserve">
<g>
	<path fill="#547CBE" d="M15.5,36.502c11.596,0,20.999-9.402,20.999-21c0-11.6-9.402-21.003-20.999-21.003
		c-11.597,0-20.998,9.403-20.998,21.003C-5.499,27.1,3.903,36.502,15.5,36.502"/>
	<path fill="#FFFFFF" d="M10.433,11.947h2.174V9.835c0-0.933,0.025-2.366,0.697-3.257c0.711-0.94,1.689-1.58,3.37-1.58
		c2.738,0,3.893,0.39,3.893,0.39l-0.545,3.218c0,0-0.904-0.262-1.746-0.262c-0.846,0-1.605,0.303-1.605,1.146v2.452h3.461
		l-0.24,3.143H16.67v10.912h-4.069V15.084h-2.172L10.433,11.947L10.433,11.947z"/>
</g>
</svg>
