<?xml version="1.0" encoding="utf-8"?>
<!-- Generator: Adobe Illustrator 16.0.4, SVG Export Plug-In . SVG Version: 6.00 Build 0)  -->
<!DOCTYPE svg PUBLIC "-//W3C//DTD SVG 1.1//EN" "http://www.w3.org/Graphics/SVG/1.1/DTD/svg11.dtd">
<svg version="1.1" id="Layer_1" xmlns="http://www.w3.org/2000/svg" xmlns:xlink="http://www.w3.org/1999/xlink" x="0px" y="0px"
	 width="45px" height="45px" viewBox="-7 -7 45 45" enable-background="new -7 -7 45 45" xml:space="preserve">
<g>
	<path fill="#696969" d="M15.5,36.502c11.598,0,20.999-9.403,20.999-21.001c0-11.6-9.4-21.003-20.999-21.003
		c-11.599,0-20.998,9.403-20.998,21.003C-5.499,27.099,3.901,36.502,15.5,36.502"/>
	<path fill="#FFFFFF" d="M21.945,5H9.063C6.824,5,5.005,6.82,5.005,9.058v4.286v8.601c0,2.237,1.824,4.054,4.058,4.054h12.882
		c2.238,0,4.057-1.818,4.057-4.054v-8.601V9.058C26.002,6.819,24.182,5,21.945,5z M23.107,7.42l0.465-0.003v0.465v3.095
		l-3.545,0.014l-0.016-3.56L23.107,7.42z M12.505,13.345c0.67-0.931,1.764-1.542,2.997-1.542c1.234,0,2.324,0.611,2.998,1.542
		c0.438,0.61,0.699,1.351,0.699,2.155c0,2.037-1.66,3.695-3.697,3.695c-2.037,0-3.696-1.66-3.696-3.695
		C11.806,14.695,12.068,13.955,12.505,13.345z M23.955,21.944c0,1.111-0.904,2.014-2.014,2.014H9.06
		c-1.109,0-2.014-0.902-2.014-2.014v-8.598h3.135c-0.271,0.665-0.426,1.392-0.426,2.154c0,3.165,2.575,5.743,5.744,5.743
		c3.168,0,5.745-2.578,5.745-5.743c0-0.763-0.152-1.489-0.426-2.154h3.135L23.955,21.944L23.955,21.944z"/>
</g>
</svg>
