<?xml version="1.0" encoding="utf-8"?>
<!-- Generator: Adobe Illustrator 16.0.4, SVG Export Plug-In . SVG Version: 6.00 Build 0)  -->
<!DOCTYPE svg PUBLIC "-//W3C//DTD SVG 1.1//EN" "http://www.w3.org/Graphics/SVG/1.1/DTD/svg11.dtd">
<svg version="1.1" id="Layer_1" xmlns="http://www.w3.org/2000/svg" xmlns:xlink="http://www.w3.org/1999/xlink" x="0px" y="0px"
	 width="31px" height="31px" viewBox="380 290 31 31" enable-background="new 380 290 31 31" xml:space="preserve">
<g>
	<path fill="#696969" d="M395.5,320.502c8.284,0,14.999-6.717,14.999-15.001c0-8.285-6.715-15.002-14.999-15.002
		c-8.285,0-14.999,6.717-14.999,15.002C380.501,313.785,387.215,320.502,395.5,320.502"/>
	<path fill="#FFFFFF" d="M400.104,298h-9.201c-1.6,0-2.899,1.301-2.899,2.898v3.062v6.143c0,1.598,1.302,2.896,2.899,2.896h9.201
		c1.599,0,2.898-1.299,2.898-2.896v-6.143v-3.062C403.002,299.3,401.701,298,400.104,298z M400.934,299.729l0.332-0.002v0.331v2.212
		l-2.533,0.009l-0.01-2.543L400.934,299.729z M393.361,303.961c0.479-0.665,1.26-1.101,2.141-1.101s1.66,0.436,2.141,1.101
		c0.312,0.435,0.5,0.965,0.5,1.539c0,1.455-1.186,2.64-2.641,2.64s-2.641-1.186-2.641-2.64
		C392.861,304.926,393.049,304.396,393.361,303.961z M401.54,310.104c0,0.793-0.646,1.438-1.438,1.438H390.9
		c-0.793,0-1.438-0.645-1.438-1.438v-6.142h2.239c-0.193,0.476-0.304,0.994-0.304,1.539c0,2.261,1.84,4.103,4.103,4.103
		s4.103-1.842,4.103-4.103c0-0.545-0.109-1.063-0.304-1.539h2.239L401.54,310.104L401.54,310.104z"/>
</g>
</svg>
