<?xml version="1.0" encoding="utf-8"?>
<!-- Generator: Adobe Illustrator 16.0.4, SVG Export Plug-In . SVG Version: 6.00 Build 0)  -->
<!DOCTYPE svg PUBLIC "-//W3C//DTD SVG 1.1//EN" "http://www.w3.org/Graphics/SVG/1.1/DTD/svg11.dtd">
<svg version="1.1" id="Layer_1" xmlns="http://www.w3.org/2000/svg" xmlns:xlink="http://www.w3.org/1999/xlink" x="0px" y="0px"
	 width="31px" height="31px" viewBox="380 290 31 31" enable-background="new 380 290 31 31" xml:space="preserve">
<g>
	<path fill="#1684C7" d="M395.5,320.502c8.285,0,14.999-6.717,14.999-15.001c0-8.285-6.714-15.002-14.999-15.002
		c-8.283,0-14.999,6.717-14.999,15.002C380.501,313.785,387.217,320.502,395.5,320.502"/>
	<path fill="#FFFFFF" d="M391.303,311.773h-2.924v-9.357h2.924V311.773z M389.768,301.247h-0.021c-1.06,0-1.744-0.716-1.744-1.622
		c0-0.925,0.706-1.625,1.786-1.625c1.078,0,1.741,0.699,1.762,1.622C391.549,300.528,390.865,301.247,389.768,301.247z M403,311.773
		h-3.316v-4.842c0-1.268-0.518-2.133-1.657-2.133c-0.871,0-1.355,0.585-1.582,1.146c-0.086,0.2-0.071,0.481-0.071,0.766v5.062
		h-3.283c0,0,0.043-8.577,0-9.357h3.283v1.469c0.194-0.643,1.244-1.559,2.918-1.559c2.078,0,3.711,1.347,3.711,4.244L403,311.773
		L403,311.773z"/>
</g>
</svg>
