<?xml version="1.0" encoding="utf-8"?>
<!-- Generator: Adobe Illustrator 16.0.4, SVG Export Plug-In . SVG Version: 6.00 Build 0)  -->
<!DOCTYPE svg PUBLIC "-//W3C//DTD SVG 1.1//EN" "http://www.w3.org/Graphics/SVG/1.1/DTD/svg11.dtd">
<svg version="1.1" id="Layer_1" xmlns="http://www.w3.org/2000/svg" xmlns:xlink="http://www.w3.org/1999/xlink" x="0px" y="0px"
	 width="45px" height="45px" viewBox="-7 -7 45 45" enable-background="new -7 -7 45 45" xml:space="preserve">
<g>
	<path fill="#1684C7" d="M15.5,36.502c11.6,0,20.999-9.403,20.999-21.001c0-11.6-9.398-21.003-20.999-21.003
		c-11.596,0-20.998,9.403-20.998,21.003C-5.499,27.099,3.904,36.502,15.5,36.502"/>
	<path fill="#FFFFFF" d="M9.624,24.282H5.531V11.182h4.093V24.282z M7.474,9.546H7.446c-1.483,0-2.441-1.003-2.441-2.271
		C5.004,5.979,5.993,5,7.504,5c1.51,0,2.438,0.979,2.467,2.271C9.968,8.538,9.011,9.546,7.474,9.546z M26,24.282h-4.643v-6.779
		c0-1.775-0.725-2.986-2.318-2.986c-1.221,0-1.898,0.819-2.215,1.604c-0.121,0.28-0.102,0.674-0.102,1.073v7.088h-4.595
		c0,0,0.06-12.008,0-13.101h4.595v2.057c0.273-0.9,1.742-2.183,4.086-2.183c2.91,0,5.195,1.886,5.195,5.942L26,24.282L26,24.282z"/>
</g>
</svg>
