<?xml version="1.0" encoding="utf-8"?>
<!-- Generator: Adobe Illustrator 16.0.4, SVG Export Plug-In . SVG Version: 6.00 Build 0)  -->
<!DOCTYPE svg PUBLIC "-//W3C//DTD SVG 1.1//EN" "http://www.w3.org/Graphics/SVG/1.1/DTD/svg11.dtd">
<svg version="1.1" id="Layer_1" xmlns="http://www.w3.org/2000/svg" xmlns:xlink="http://www.w3.org/1999/xlink" x="0px" y="0px"
	 width="45px" height="45px" viewBox="-7 -7 45 45" enable-background="new -7 -7 45 45" xml:space="preserve">
<g>
	<path fill="#E95756" d="M15.5,36.502c11.598,0,20.999-9.4,20.999-21.001c0-11.599-9.4-21.002-20.999-21.002
		C3.904-5.501-5.499,3.902-5.499,15.5C-5.499,27.102,3.904,36.502,15.5,36.502"/>
	<path fill="#FFFFFF" d="M15.5,4.944c-5.797,0-10.498,4.699-10.498,10.5c0,4.3,2.585,7.996,6.287,9.619
		c-0.032-0.73-0.008-1.611,0.18-2.41c0.203-0.854,1.351-5.725,1.351-5.725s-0.335-0.67-0.335-1.663c0-1.556,0.905-2.718,2.026-2.718
		c0.954,0,1.416,0.719,1.416,1.577c0,0.961-0.612,2.395-0.927,3.727c-0.263,1.113,0.558,2.02,1.661,2.02
		c1.988,0,3.328-2.555,3.328-5.58c0-2.304-1.549-4.025-4.368-4.025c-3.184,0-5.166,2.375-5.166,5.029c0,0.916,0.266,1.56,0.689,2.06
		c0.197,0.23,0.22,0.32,0.15,0.586c-0.051,0.193-0.165,0.658-0.215,0.846c-0.069,0.264-0.283,0.363-0.524,0.264
		c-1.468-0.6-2.146-2.207-2.146-4.01c0-2.984,2.513-6.562,7.496-6.562c4.01,0,6.651,2.901,6.651,6.018
		c0,4.116-2.293,7.196-5.67,7.196c-1.135,0-2.198-0.611-2.561-1.309c0,0-0.614,2.42-0.74,2.887c-0.219,0.811-0.657,1.617-1.057,2.25
		c0.945,0.275,1.945,0.434,2.976,0.434c5.804,0,10.5-4.701,10.5-10.503C26.002,9.646,21.299,4.944,15.5,4.944"/>
</g>
</svg>
