<?xml version="1.0" encoding="utf-8"?>
<!-- Generator: Adobe Illustrator 16.0.4, SVG Export Plug-In . SVG Version: 6.00 Build 0)  -->
<!DOCTYPE svg PUBLIC "-//W3C//DTD SVG 1.1//EN" "http://www.w3.org/Graphics/SVG/1.1/DTD/svg11.dtd">
<svg version="1.1" id="Layer_1" xmlns="http://www.w3.org/2000/svg" xmlns:xlink="http://www.w3.org/1999/xlink" x="0px" y="0px"
	 width="31px" height="31px" viewBox="380 290 31 31" enable-background="new 380 290 31 31" xml:space="preserve">
<g>
	<path fill="#E95756" d="M395.5,320.501c8.284,0,14.999-6.715,14.999-15.001c0-8.284-6.715-15.001-14.999-15.001
		c-8.283,0-14.999,6.717-14.999,15.001C380.501,313.786,387.217,320.501,395.5,320.501"/>
	<path fill="#FFFFFF" d="M395.5,297.96c-4.141,0-7.499,3.357-7.499,7.5c0,3.071,1.847,5.711,4.491,6.87
		c-0.023-0.521-0.006-1.151,0.128-1.722c0.146-0.609,0.965-4.088,0.965-4.088s-0.239-0.479-0.239-1.188
		c0-1.111,0.646-1.941,1.447-1.941c0.682,0,1.012,0.514,1.012,1.127c0,0.686-0.438,1.711-0.662,2.662
		c-0.188,0.795,0.398,1.442,1.185,1.442c1.421,0,2.378-1.824,2.378-3.985c0-1.646-1.106-2.875-3.12-2.875
		c-2.274,0-3.69,1.696-3.69,3.592c0,0.654,0.19,1.115,0.493,1.471c0.14,0.165,0.157,0.23,0.107,0.419
		c-0.036,0.138-0.118,0.47-0.153,0.604c-0.05,0.188-0.202,0.259-0.375,0.188c-1.048-0.429-1.533-1.576-1.533-2.864
		c0-2.132,1.795-4.688,5.355-4.688c2.864,0,4.75,2.073,4.75,4.298c0,2.941-1.638,5.141-4.05,5.141c-0.81,0-1.569-0.438-1.829-0.935
		c0,0-0.438,1.728-0.528,2.062c-0.157,0.578-0.47,1.155-0.755,1.606c0.675,0.198,1.389,0.31,2.125,0.31c4.145,0,7.5-3.358,7.5-7.502
		C403.002,301.319,399.643,297.96,395.5,297.96"/>
</g>
</svg>
