<?xml version="1.0" encoding="utf-8"?>
<!-- Generator: Adobe Illustrator 16.0.4, SVG Export Plug-In . SVG Version: 6.00 Build 0)  -->
<!DOCTYPE svg PUBLIC "-//W3C//DTD SVG 1.1//EN" "http://www.w3.org/Graphics/SVG/1.1/DTD/svg11.dtd">
<svg version="1.1" id="Layer_1" xmlns="http://www.w3.org/2000/svg" xmlns:xlink="http://www.w3.org/1999/xlink" x="0px" y="0px"
	 width="31px" height="31px" viewBox="380 290 31 31" enable-background="new 380 290 31 31" xml:space="preserve">
<g>
	<path fill="#79CBEE" d="M395.5,320.501c8.284,0,14.999-6.715,14.999-15.001c0-8.284-6.715-15.001-14.999-15.001
		c-8.283,0-14.999,6.717-14.999,15.001C380.501,313.786,387.217,320.501,395.5,320.501"/>
	<path fill="#FFFFFF" d="M403.025,301.569c-0.554,0.246-1.147,0.412-1.771,0.486c0.639-0.382,1.126-0.985,1.355-1.705
		c-0.599,0.354-1.257,0.609-1.959,0.747c-0.562-0.599-1.362-0.974-2.25-0.974c-1.7,0-3.081,1.381-3.081,3.083
		c0,0.242,0.025,0.478,0.078,0.702c-2.562-0.129-4.832-1.354-6.354-3.222c-0.266,0.458-0.418,0.986-0.418,1.552
		c0,1.068,0.545,2.012,1.372,2.566c-0.505-0.016-0.981-0.156-1.397-0.386v0.038c0,1.494,1.062,2.74,2.475,3.021
		c-0.26,0.072-0.53,0.107-0.812,0.107c-0.199,0-0.393-0.019-0.58-0.055c0.394,1.225,1.529,2.116,2.879,2.141
		c-1.055,0.827-2.385,1.32-3.828,1.32c-0.248,0-0.496-0.016-0.734-0.043c1.363,0.874,2.982,1.385,4.725,1.385
		c5.672,0,8.771-4.696,8.771-8.771c0-0.135-0.003-0.268-0.01-0.398C402.09,302.731,402.613,302.188,403.025,301.569"/>
</g>
</svg>
