<?xml version="1.0" encoding="utf-8"?>
<!-- Generator: Adobe Illustrator 16.0.4, SVG Export Plug-In . SVG Version: 6.00 Build 0)  -->
<!DOCTYPE svg PUBLIC "-//W3C//DTD SVG 1.1//EN" "http://www.w3.org/Graphics/SVG/1.1/DTD/svg11.dtd">
<svg version="1.1" id="Layer_1" xmlns="http://www.w3.org/2000/svg" xmlns:xlink="http://www.w3.org/1999/xlink" x="0px" y="0px"
	 width="45px" height="45px" viewBox="-7 -7 45 45" enable-background="new -7 -7 45 45" xml:space="preserve">
<g>
	<path fill="#79CBEE" d="M15.5,36.502c11.598,0,20.999-9.4,20.999-21.001c0-11.599-9.4-21.002-20.999-21.002
		C3.904-5.501-5.499,3.902-5.499,15.5C-5.499,27.102,3.904,36.502,15.5,36.502"/>
	<path fill="#FFFFFF" d="M26.035,9.996c-0.775,0.345-1.605,0.577-2.48,0.681c0.895-0.534,1.576-1.378,1.898-2.387
		c-0.84,0.496-1.762,0.854-2.742,1.047c-0.787-0.839-1.908-1.364-3.15-1.364c-2.381,0-4.315,1.934-4.315,4.316
		c0,0.339,0.035,0.669,0.109,0.983C11.769,13.091,8.59,11.376,6.46,8.76c-0.372,0.643-0.586,1.381-0.586,2.174
		c0,1.495,0.764,2.816,1.921,3.593c-0.706-0.023-1.374-0.219-1.956-0.542v0.054c0,2.092,1.487,3.836,3.466,4.229
		c-0.365,0.102-0.742,0.15-1.136,0.15c-0.279,0-0.552-0.025-0.812-0.076c0.551,1.713,2.14,2.963,4.03,2.996
		c-1.478,1.158-3.34,1.848-5.359,1.848c-0.347,0-0.694-0.021-1.028-0.059c1.909,1.223,4.176,1.938,6.615,1.938
		c7.942,0,12.28-6.574,12.28-12.28c0-0.188-0.004-0.374-0.014-0.557C24.727,11.623,25.459,10.863,26.035,9.996"/>
</g>
</svg>
